<svg width="800" height="170" fill="black" font-family="sans-serif" font-size="13px" xmlns="http://www.w3.org/2000/svg">
  <style>
    @media (prefers-color-scheme: dark) {
      #bg { fill: #0D1116; }
      text { fill: #C9D1D9; }
    }
  </style>
  <rect id="bg" width="800" height="170" fill="#FFFFFF"/>
  <rect x="120" y="20" width="1" height="120" fill="#7F7F7F" fill-opacity="0.25"/>
  <rect x="266.8230529069277" y="20" width="1" height="120" fill="#7F7F7F" fill-opacity="0.25"/>
  <rect x="413.6461058138554" y="20" width="1" height="120" fill="#7F7F7F" fill-opacity="0.25"/>
  <rect x="560.4691587207831" y="20" width="1" height="120" fill="#7F7F7F" fill-opacity="0.25"/>
  <rect x="707.2922116277108" y="20" width="1" height="120" fill="#7F7F7F" fill-opacity="0.25"/>
  <rect x="120" y="23" width="1.810817652518775" height="14" fill="#FFCF00"/>
  <text x="112" y="30" text-anchor="end" dominant-baseline="middle" font-weight="bold">esbuild</text>
  <text x="129.81081765251878" y="30" dominant-baseline="middle" font-weight="bold">0.37s</text>
  <rect x="120" y="43" width="176.18766348831323" height="14" fill="#FFCF00"/>
  <text x="112" y="50" text-anchor="end" dominant-baseline="middle">rollup + terser</text>
  <text x="304.1876634883132" y="50" dominant-baseline="middle">36.00s</text>
  <rect x="120" y="63" width="205.11180491097795" height="14" fill="#FFCF00"/>
  <text x="112" y="70" text-anchor="end" dominant-baseline="middle">webpack 4</text>
  <text x="333.111804910978" y="70" dominant-baseline="middle">41.91s</text>
  <rect x="120" y="83" width="266.72854611425197" height="14" fill="#FFCF00"/>
  <text x="112" y="90" text-anchor="end" dominant-baseline="middle">webpack 5</text>
  <text x="394.72854611425197" y="90" dominant-baseline="middle">54.50s</text>
  <rect x="120" y="103" width="277.54451101172896" height="14" fill="#FFCF00"/>
  <text x="112" y="110" text-anchor="end" dominant-baseline="middle">parcel 2</text>
  <text x="405.54451101172896" y="110" dominant-baseline="middle">56.71s</text>
  <rect x="120" y="123" width="580" height="14" fill="#FFCF00"/>
  <text x="112" y="130" text-anchor="end" dominant-baseline="middle">parcel 1</text>
  <text x="708" y="130" dominant-baseline="middle">118.51s</text>
  <text x="120" y="144" text-anchor="middle" dominant-baseline="hanging">0s</text>
  <text x="266.8230529069277" y="144" text-anchor="middle" dominant-baseline="hanging">30s</text>
  <text x="413.6461058138554" y="144" text-anchor="middle" dominant-baseline="hanging">60s</text>
  <text x="560.4691587207831" y="144" text-anchor="middle" dominant-baseline="hanging">90s</text>
  <text x="707.2922116277108" y="144" text-anchor="middle" dominant-baseline="hanging">120s</text>
</svg>
