<svg width="800" height="130" fill="black" font-family="sans-serif" font-size="13px" xmlns="http://www.w3.org/2000/svg">
  <rect x="120" y="20" width="1" height="80" fill="#7F7F7F" fill-opacity="0.25"/>
  <rect x="260.7425382188789" y="20" width="1" height="80" fill="#7F7F7F" fill-opacity="0.25"/>
  <rect x="401.4850764377578" y="20" width="1" height="80" fill="#7F7F7F" fill-opacity="0.25"/>
  <rect x="542.2276146566368" y="20" width="1" height="80" fill="#7F7F7F" fill-opacity="0.25"/>
  <rect x="682.9701528755156" y="20" width="1" height="80" fill="#7F7F7F" fill-opacity="0.25"/>
  <rect x="120" y="23" width="5.488958990536278" height="14" fill="#FFCF00"/>
  <text x="112" y="30" text-anchor="end" dominant-baseline="middle" font-weight="bold">esbuild</text>
  <text x="133.48895899053628" y="30" dominant-baseline="middle" font-weight="bold">0.39s</text>
  <rect x="120" y="43" width="209.84712448434846" height="14" fill="#FFCF00"/>
  <text x="112" y="50" text-anchor="end" dominant-baseline="middle">parcel 2</text>
  <text x="337.84712448434846" y="50" dominant-baseline="middle">14.91s</text>
  <rect x="120" y="63" width="479.9320553263771" height="14" fill="#FFCF00"/>
  <text x="112" y="70" text-anchor="end" dominant-baseline="middle">rollup 4 + terser</text>
  <text x="607.9320553263772" y="70" dominant-baseline="middle">34.10s</text>
  <rect x="120" y="83" width="580" height="14" fill="#FFCF00"/>
  <text x="112" y="90" text-anchor="end" dominant-baseline="middle">webpack 5</text>
  <text x="708" y="90" dominant-baseline="middle">41.21s</text>
  <text x="120" y="104" text-anchor="middle" dominant-baseline="hanging">0s</text>
  <text x="260.7425382188789" y="104" text-anchor="middle" dominant-baseline="hanging">10s</text>
  <text x="401.4850764377578" y="104" text-anchor="middle" dominant-baseline="hanging">20s</text>
  <text x="542.2276146566368" y="104" text-anchor="middle" dominant-baseline="hanging">30s</text>
  <text x="682.9701528755156" y="104" text-anchor="middle" dominant-baseline="hanging">40s</text>
</svg>
