<svg width="800" height="130" fill="black" font-family="sans-serif" font-size="13px" xmlns="http://www.w3.org/2000/svg">
  <rect x="120" y="20" width="1" height="80" fill="#7F7F7F" fill-opacity="0.25"/>
  <rect x="266.095717884131" y="20" width="1" height="80" fill="#7F7F7F" fill-opacity="0.25"/>
  <rect x="412.19143576826195" y="20" width="1" height="80" fill="#7F7F7F" fill-opacity="0.25"/>
  <rect x="558.2871536523929" y="20" width="1" height="80" fill="#7F7F7F" fill-opacity="0.25"/>
  <rect x="704.3828715365239" y="20" width="1" height="80" fill="#7F7F7F" fill-opacity="0.25"/>
  <rect x="120" y="23" width="5.405541561712846" height="14" fill="#FFCF00"/>
  <text x="112" y="30" text-anchor="end" dominant-baseline="middle" font-weight="bold">esbuild</text>
  <text x="133.40554156171285" y="30" dominant-baseline="middle" font-weight="bold">0.37s</text>
  <rect x="120" y="43" width="445.59193954659946" height="14" fill="#FFCF00"/>
  <text x="112" y="50" text-anchor="end" dominant-baseline="middle">parcel 2</text>
  <text x="573.5919395465994" y="50" dominant-baseline="middle">30.50s</text>
  <rect x="120" y="63" width="468.52896725440803" height="14" fill="#FFCF00"/>
  <text x="112" y="70" text-anchor="end" dominant-baseline="middle">rollup + terser</text>
  <text x="596.528967254408" y="70" dominant-baseline="middle">32.07s</text>
  <rect x="120" y="83" width="580" height="14" fill="#FFCF00"/>
  <text x="112" y="90" text-anchor="end" dominant-baseline="middle">webpack 5</text>
  <text x="708" y="90" dominant-baseline="middle">39.70s</text>
  <text x="120" y="104" text-anchor="middle" dominant-baseline="hanging">0s</text>
  <text x="266.095717884131" y="104" text-anchor="middle" dominant-baseline="hanging">10s</text>
  <text x="412.19143576826195" y="104" text-anchor="middle" dominant-baseline="hanging">20s</text>
  <text x="558.2871536523929" y="104" text-anchor="middle" dominant-baseline="hanging">30s</text>
  <text x="704.3828715365239" y="104" text-anchor="middle" dominant-baseline="hanging">40s</text>
</svg>
